<svg width="100" height="96" viewBox="0 0 100 96" fill="none" xmlns="http://www.w3.org/2000/svg">
<g id="Group 10">
<ellipse id="Oval Copy 4" cx="50.1835" cy="48" rx="49.2424" ry="48" fill="#FCB72B"/>
<path id="Combined Shape" fill-rule="evenodd" clip-rule="evenodd" d="M66.7734 46H68.6494C69.0271 46 69.3333 45.7015 69.3333 45.3333V40C69.3333 39.6318 69.0271 39.3333 68.6494 39.3333H62.2329L61.1263 37.176V34.6667C61.1263 34.2985 60.8201 34 60.4424 34H56.3388C55.9611 34 55.6549 34.2985 55.6549 34.6667V37.3333C55.6549 37.7015 55.9611 38 56.3388 38H60.0197L61.1263 40.1573V58H59.0745V57.3333C59.0745 56.2288 58.1559 55.3333 57.0228 55.3333V48C57.0228 47.6318 56.7166 47.3333 56.3388 47.3333H48.8157V45.5207L50.7013 45.98C50.7556 45.9933 50.8114 46 50.8675 46H56.3388C56.7166 46 57.0228 45.7015 57.0228 45.3333V44.0146C57.0308 45.1124 57.9463 46 59.0745 46C60.2076 46 61.1262 45.1046 61.1262 44C61.1262 42.8954 60.2076 42 59.0745 42C57.9463 42 57.0308 42.8876 57.0228 43.9854V42.6667C57.0228 42.2985 56.7166 42 56.3388 42H50.9516L48.8157 41.4793V30.6667C48.8157 29.1939 47.5909 28 46.08 28H43.3443C41.8334 28 40.6086 29.1939 40.6086 30.6667V38H37.189C36.0559 38 35.1373 38.8954 35.1373 40V42H30.3498C30.0732 42.0001 29.8239 42.1625 29.7181 42.4116C29.6123 42.6606 29.6707 42.9473 29.8663 43.138L31.4345 44.6667L29.8663 46.1953C29.6707 46.386 29.6123 46.6727 29.7181 46.9218C29.8239 47.1708 30.0732 47.3333 30.3498 47.3333H37.189C38.3222 47.3333 39.2408 46.4379 39.2408 45.3333V43.3333H40.6086V50H38.5569C36.1792 50.0027 34.1638 51.706 33.8241 54H31.7177C31.3399 54 31.0337 54.2985 31.0337 54.6667V57.3333C31.0337 57.7015 31.3399 58 31.7177 58H33.7694V59.3333H30.3498C29.9721 59.3333 29.6659 59.6318 29.6659 60V62.6667C29.6659 63.0349 29.9721 63.3333 30.3498 63.3333H37.873C37.873 65.9107 40.0164 68 42.6604 68C45.3044 68 47.4479 65.9107 47.4479 63.3333H59.7584C59.7584 65.9107 61.9019 68 64.5459 68C67.1899 68 69.3333 65.9107 69.3333 63.3333H70.0173C70.2258 63.3335 70.423 63.2409 70.5528 63.0818C70.6827 62.9228 70.731 62.7147 70.6841 62.5167L66.7734 46ZM59.7584 36.6666H57.0227V35.3333H59.7584V36.6666ZM31.0338 62.0001H33.7695V60.6667H31.0338V62.0001ZM33.7694 56.6666H32.4015V55.3333H33.7694V56.6666ZM67.9655 40.6667H66.5976V44.6667H67.9655V40.6667ZM62.4941 40.6667H65.2298V44.6667H62.4941V40.6667ZM57.7067 57.3334C57.7067 56.9652 57.4005 56.6667 57.0227 56.6667H54.2871V58.0001H57.7067V57.3334ZM50.7013 43.3133C50.7556 43.3265 50.8114 43.3333 50.8675 43.3333H55.6549V44.6666H50.9516L46.08 43.4793V42.1873L50.7013 43.3133ZM43.3443 29.3333C42.5889 29.3333 41.9765 29.9302 41.9765 30.6666V33.3333H44.0282V31.9999C44.0282 31.6317 44.3344 31.3333 44.7122 31.3333H47.4478V30.6666C47.4478 29.9302 46.8354 29.3333 46.08 29.3333H43.3443ZM44.7122 34.6667C45.0899 34.6667 45.3961 34.3683 45.3961 34.0001V32.6667H47.4478V34.1707L41.9765 35.7707V34.6667H44.7122ZM47.4478 38.6667V35.5627L41.9765 37.1627V38.6667H47.4478ZM47.4478 40V41.146L45.5623 40.6867C45.3579 40.6368 45.1414 40.6814 44.9753 40.8078C44.8092 40.9341 44.7122 41.128 44.7122 41.3333V44C44.7122 44.3058 44.9256 44.5724 45.2299 44.6467L47.4478 45.1873V47.3333H41.9765V40H47.4478ZM55.6549 48.6667H41.9765V50.0001H53.6031C53.9809 50.0001 54.2871 50.2986 54.2871 50.6667V55.3334H55.6549V48.6667ZM37.8729 45.3333C37.8729 45.7014 37.5667 45.9999 37.189 45.9999H32.0008L32.8851 45.1379C33.1521 44.8776 33.1521 44.4556 32.8851 44.1953L32.0008 43.3333H37.8729V45.3333ZM36.5051 39.9999V41.9999H40.6086V39.3333H37.189C36.8113 39.3333 36.5051 39.6317 36.5051 39.9999ZM42.6604 66.6666C40.7728 66.6644 39.2431 65.1733 39.2408 63.3333H40.6087C40.6087 64.4378 41.5273 65.3333 42.6604 65.3333C43.7936 65.3333 44.7122 64.4378 44.7122 63.3333H46.08C46.0778 65.1733 44.5481 66.6644 42.6604 66.6666ZM42.6604 63.9999C43.0381 63.9999 43.3443 63.7014 43.3443 63.3333H41.9765C41.9765 63.7014 42.2827 63.9999 42.6604 63.9999ZM47.4478 62.0001H37.8729V55.3334C37.8729 54.9652 38.1791 54.6667 38.5569 54.6667H46.7639C47.1416 54.6667 47.4478 54.9652 47.4478 55.3334V62.0001ZM48.8157 61.9999H50.1836V54.6666C50.1813 52.8265 48.6516 51.3355 46.764 51.3333H38.5569C36.6692 51.3355 35.1396 52.8265 35.1373 54.6666V61.9999H36.5051V55.3333C36.5051 54.2287 37.4237 53.3333 38.5569 53.3333H46.764C47.8971 53.3333 48.8157 54.2287 48.8157 55.3333V61.9999ZM50.1083 51.3333H52.9192V57.9999H51.5513V54.6666C51.5515 53.4112 51.0311 52.209 50.1083 51.3333ZM51.5514 59.3333V61.9999H61.1263V59.3333H51.5514ZM64.5458 66.6666C62.6582 66.6644 61.1285 65.1733 61.1262 63.3333H62.4941C62.4941 64.4378 63.4127 65.3333 64.5458 65.3333C65.679 65.3333 66.5976 64.4378 66.5976 63.3333H67.9654C67.9632 65.1733 66.4335 66.6644 64.5458 66.6666ZM64.5459 63.9999C64.9236 63.9999 65.2298 63.7014 65.2298 63.3333H63.862C63.862 63.7014 64.1682 63.9999 64.5459 63.9999ZM62.4941 62V57.3333H63.862V56H62.4941V46H65.3666L69.1541 62H62.4941ZM66.5976 56H65.2298V57.3333H66.5976V56ZM39.2408 56H40.6087V57.3333H39.2408V56ZM43.3443 56H41.9765V57.3333H43.3443V56ZM44.7121 56H46.08V57.3333H44.7121V56ZM59.0745 43.3333C59.4522 43.3333 59.7584 43.6317 59.7584 43.9999C59.7584 44.3681 59.4522 44.6666 59.0745 44.6666C58.6968 44.6666 58.3906 44.3681 58.3906 43.9999C58.3906 43.6317 58.6968 43.3333 59.0745 43.3333ZM29.6659 32.6667H38.5569V34H29.6659V32.6667ZM39.2408 35.3333H31.0338V36.6666H39.2408V35.3333Z" fill="#495567"/>
</g>
</svg>
