<svg width="99" height="96" viewBox="0 0 99 96" fill="none" xmlns="http://www.w3.org/2000/svg">
<g id="Group 9">
<ellipse id="Oval Copy 3" cx="49.3483" cy="48" rx="49.2424" ry="48" fill="#FCB72B"/>
<g id="001-scooter">
<path id="Path" d="M46.3422 62.301C46.1188 62.301 45.9001 62.3895 45.7424 62.5433C45.5847 62.697 45.4939 62.9105 45.4939 63.1279C45.4939 63.3453 45.5847 63.5588 45.7424 63.7125C45.9001 63.8663 46.1188 63.9548 46.3422 63.9548C46.5652 63.9548 46.7839 63.8663 46.9419 63.7125C47.0997 63.5588 47.1904 63.3462 47.1904 63.1279C47.1904 62.9105 47.0997 62.697 46.9419 62.5433C46.7839 62.3895 46.5652 62.301 46.3422 62.301Z" fill="black"/>
<path id="Shape" fill-rule="evenodd" clip-rule="evenodd" d="M63.2377 48.4188L61.2608 39.7131C61.7943 39.6427 62.2649 39.3781 62.5959 38.9951C62.9866 39.2331 63.4475 39.3714 63.9412 39.3714H65.6377C66.1063 39.3714 66.486 39.0012 66.486 38.5445V35.237C66.486 34.7803 66.1063 34.4101 65.6377 34.4101H63.9412C63.4329 34.4101 62.959 34.5568 62.5611 34.8084C62.1727 34.3804 61.6058 34.1097 60.9749 34.1097H55.9674C55.0678 34.1097 54.2977 34.6598 53.9912 35.4327H51.9805C50.7644 35.4327 49.775 36.3972 49.775 37.5826C49.775 38.768 50.7644 39.7325 51.9805 39.7325H56.3468V41.3988C56.3468 41.8555 56.7266 42.2257 57.1951 42.2257C57.6636 42.2257 58.0434 41.8555 58.0434 41.3988V39.7325H59.5278L61.6572 49.1107L57.6272 56.1075C57.1868 56.8691 56.3564 57.3423 55.4594 57.3423H45.3991C44.9779 53.8995 41.9666 51.2208 38.3233 51.2208C36.7112 51.2208 35.1903 51.7328 33.9249 52.7011L33.9199 52.705C32.4132 53.8601 31.4662 55.5177 31.2455 57.3423H29.5032C29.6139 51.3978 34.6091 46.5955 40.7329 46.5955H46.7504C47.2252 46.5955 47.6119 46.9725 47.6119 47.4356V54.8617C47.6119 55.3184 47.9916 55.6885 48.4602 55.6885H52.9739C54.8153 55.6885 56.5122 54.7124 57.4022 53.1417C57.8141 52.415 58.0324 51.592 58.0331 50.7622L58.0374 48.0151C58.0381 47.5584 57.6587 47.1876 57.1901 47.1869H57.1891C56.7212 47.1869 56.3415 47.5564 56.3409 48.0125L56.3365 50.7603C56.3362 51.3119 56.1911 51.8591 55.9174 52.342C55.3256 53.3859 54.1976 54.0345 52.9739 54.0345H49.3085V47.4353C49.3085 47.0119 49.1991 46.6126 49.0072 46.2628C49.7694 45.8336 50.2836 45.0312 50.2836 44.1136C50.2836 42.7457 49.1418 41.633 47.7388 41.633H44.6426C44.3451 41.633 44.0598 41.6834 43.7943 41.7751V34.5219C43.7943 33.154 42.6525 32.0413 41.2495 32.0413H35.7771C31.8101 32.0413 28.5111 34.8804 27.9048 38.5832C27.8792 38.6621 27.8653 38.7457 27.8653 38.8326C27.8653 38.8352 27.8655 38.8378 27.8657 38.8403C27.8658 38.8427 27.866 38.8451 27.866 38.8475C27.8256 39.164 27.8047 39.486 27.8047 39.8126V44.1139C27.8047 45.3559 28.7461 46.3875 29.9698 46.5668L31.8482 48.3978C29.3594 50.6963 27.8047 53.9463 27.8047 57.5442V58.1692C27.8047 58.6259 28.1844 58.996 28.653 58.996H33.4202C33.4093 59.0493 33.4033 59.1049 33.4033 59.1614C33.4033 60.3614 33.8589 61.4592 34.6091 62.3009H28.653C28.1844 62.3009 27.8047 62.6714 27.8047 63.1278C27.8047 63.5845 28.1844 63.9547 28.653 63.9547H38.2252L38.2535 63.9556C38.2768 63.9565 38.2999 63.9573 38.3233 63.9573C41.0361 63.9573 43.2433 61.8058 43.2433 59.1614C43.2433 59.1049 43.2373 59.0493 43.2264 58.996H55.4594C56.7951 58.996 58.0434 58.372 58.8257 57.3397H59.9C59.6584 57.9127 59.5302 58.5303 59.5302 59.1614C59.5302 60.3614 59.9858 61.4592 60.736 62.3009H49.7352C49.2667 62.3009 48.887 62.6714 48.887 63.1278C48.887 63.5845 49.2667 63.9547 49.7352 63.9547H64.3521C64.3849 63.9557 64.4174 63.9573 64.4502 63.9573C67.163 63.9573 69.3702 61.8058 69.3702 59.1614C69.3702 58.5303 69.2419 57.9127 69.0004 57.3397H70.3881C70.8566 57.3397 71.2364 56.9696 71.2364 56.5128C71.2364 52.1482 67.6759 48.5787 63.2377 48.4188ZM44.6426 43.2871H47.7388C48.2063 43.2871 48.587 43.6579 48.587 44.114C48.587 44.5697 48.2063 44.9409 47.7388 44.9409H44.6426C44.1747 44.9409 43.7943 44.5697 43.7943 44.114C43.7943 43.6579 44.1747 43.2871 44.6426 43.2871ZM29.5035 39.7109L29.5035 39.7109C29.5024 39.7448 29.5012 39.7786 29.5012 39.8126V44.1139C29.5012 44.5697 29.8816 44.9408 30.3491 44.9408H30.3498H41.2491C41.717 44.9408 42.0974 44.5697 42.0974 44.1139V34.5222C42.0974 34.0661 41.717 33.6953 41.2491 33.6953H35.7771C32.9616 33.6953 30.5735 35.5119 29.7809 38.006H38.7875C39.256 38.006 39.6358 38.3762 39.6358 38.8329C39.6358 39.2896 39.256 39.6598 38.7875 39.6598H29.5052L29.5035 39.7109ZM32.3976 46.5945H34.3387C33.9312 46.8212 33.5378 47.0696 33.1594 47.3371L32.3976 46.5945ZM38.3561 62.3026C40.1182 62.2855 41.5467 60.8834 41.5467 59.1615C41.5467 59.1049 41.5527 59.0494 41.5636 58.9961H35.0829C35.0939 59.0494 35.0998 59.1049 35.0998 59.1615C35.0998 60.862 36.4932 62.2503 38.2255 62.301H38.3233C38.3342 62.301 38.3451 62.3023 38.3561 62.3026ZM32.9573 57.3422C33.1674 56.0286 33.8751 54.8419 34.9683 54.005C34.9709 54.0034 34.9733 54.0011 34.9759 53.9995C35.9388 53.2637 37.0963 52.8745 38.3233 52.8745C41.0298 52.8745 43.2801 54.8141 43.6886 57.3422H32.9573ZM64.7895 36.064H63.9412C63.4734 36.064 63.093 36.4351 63.093 36.8908C63.093 37.3469 63.4734 37.7177 63.9412 37.7177H64.7895V36.064ZM51.4716 37.5826C51.4716 37.309 51.6999 37.0864 51.9806 37.0864H53.8495V37.6678C53.8495 37.8086 53.864 37.9459 53.8915 38.0787H51.9806C51.6999 38.0787 51.4716 37.8561 51.4716 37.5826ZM55.9675 38.0787H57.1951H60.9749C61.2072 38.0787 61.3964 37.8946 61.3964 37.6678V36.1743C61.3964 35.9479 61.2072 35.7634 60.9749 35.7634H55.9675C55.7352 35.7634 55.546 35.9479 55.546 36.1743V37.6678C55.546 37.8946 55.7352 38.0787 55.9675 38.0787ZM67.6737 59.1613C67.6737 60.8832 66.2452 62.2853 64.483 62.3025C64.4783 62.3023 64.4737 62.302 64.469 62.3017C64.4627 62.3013 64.4565 62.3008 64.4502 62.3008H64.3525C62.6201 62.2501 61.2268 60.8619 61.2268 59.1613C61.2268 58.5043 61.4369 57.8693 61.8239 57.3396H67.0766C67.4636 57.8693 67.6737 58.5043 67.6737 59.1613ZM63.0502 50.0701L59.8154 55.686H69.4854C69.0732 52.5597 66.3535 50.1292 63.0502 50.0701Z" fill="#495567"/>
<path id="Path_2" d="M57.1951 45.5334C57.6637 45.5334 58.0434 45.1632 58.0434 44.7065C58.0434 44.2498 57.6637 43.8796 57.1951 43.8796H57.1922C56.7236 43.8796 56.3452 44.2498 56.3452 44.7065C56.3452 45.1632 56.7266 45.5334 57.1951 45.5334Z" fill="black"/>
</g>
</g>
</svg>
