<svg width="99" height="96" viewBox="0 0 99 96" fill="none" xmlns="http://www.w3.org/2000/svg">
<g id="Group 8">
<ellipse id="Oval" cx="49.513" cy="48" rx="49.2424" ry="48" fill="#FCB72B"/>
<path id="Combined Shape" fill-rule="evenodd" clip-rule="evenodd" d="M55.4626 24H34.1356C31.8717 24.0028 30.0372 25.791 30.0343 27.9979V67.9765C30.0372 70.1834 31.8717 71.9716 34.1356 71.9744H54.6424V70.544C54.6385 66.9421 55.7323 63.4194 57.7856 60.4246C58.003 60.1071 57.9593 59.6848 57.6831 59.4155L51.9412 53.8185C51.4105 53.3006 51.1291 52.5884 51.1663 51.8573C51.2036 51.1259 51.5561 50.4447 52.1364 49.9805C53.2543 49.1476 54.8351 49.2665 55.8088 50.2562L63.9056 58.149L65.0655 57.0184L59.564 51.6541V27.9979C59.5611 25.791 57.7266 24.0028 55.4626 24ZM57.9234 50.0548L56.9686 49.1241C55.3949 47.5569 52.864 47.3936 51.0922 48.7455C50.1551 49.4963 49.5864 50.5985 49.5272 51.7801C49.4681 52.9614 49.9233 54.1122 50.7813 54.949L56.0557 60.0904C54.0887 63.1802 53.0338 66.7391 53.0076 70.3752H34.1356C32.7769 70.3752 31.6748 69.3009 31.6748 67.9764V65.5777H52.1815V63.9786H31.6748V30.3965H57.9234V50.0548ZM31.6748 28.7974H57.9234V27.9978C57.9234 26.6733 56.8214 25.5991 55.4626 25.5991H34.1356C32.7769 25.5991 31.6748 26.6733 31.6748 27.9978V28.7974ZM61.9825 42.6006L60.8764 43.7792L65.9069 48.2744C67.0912 49.3364 67.7663 50.8328 67.7667 52.401V71.9745H69.4072V52.401C69.4052 50.384 68.5373 48.4607 67.0137 47.0956L61.9825 42.6006ZM34.9559 38.3924H38.237C39.1431 38.3924 39.8775 37.6766 39.8775 36.7933V33.595C39.8775 32.7117 39.1431 31.9958 38.237 31.9958H34.9559C34.0497 31.9958 33.3153 32.7117 33.3153 33.595V36.7933C33.3153 37.6766 34.0497 38.3924 34.9559 38.3924ZM34.9559 33.595H38.237V36.7933H34.9559V33.595ZM46.4396 38.3924H43.1586C42.2524 38.3924 41.518 37.6766 41.518 36.7933V33.595C41.518 32.7117 42.2524 31.9958 43.1586 31.9958H46.4396C47.3458 31.9958 48.0802 32.7117 48.0802 33.595V36.7933C48.0802 37.6766 47.3458 38.3924 46.4396 38.3924ZM46.4396 33.595H43.1585V36.7933H46.4396V33.595ZM51.3614 38.3924H54.6424C55.5486 38.3924 56.283 37.6766 56.283 36.7933V33.595C56.283 32.7117 55.5486 31.9958 54.6424 31.9958H51.3614C50.4552 31.9958 49.7208 32.7117 49.7208 33.595V36.7933C49.7208 37.6766 50.4552 38.3924 51.3614 38.3924ZM51.3613 33.595H54.6424V36.7933H51.3613V33.595ZM38.237 46.388H34.9559C34.0497 46.388 33.3153 45.6722 33.3153 44.7889V41.5906C33.3153 40.7073 34.0497 39.9915 34.9559 39.9915H38.237C39.1431 39.9915 39.8775 40.7073 39.8775 41.5906V44.7889C39.8775 45.6722 39.1431 46.388 38.237 46.388ZM38.237 41.5906H34.9559V44.7889H38.237V41.5906ZM34.9559 54.3839H38.237C39.1431 54.3839 39.8775 53.6681 39.8775 52.7847V49.5865C39.8775 48.7031 39.1431 47.9873 38.237 47.9873H34.9559C34.0497 47.9873 33.3153 48.7031 33.3153 49.5865V52.7847C33.3153 53.6681 34.0497 54.3839 34.9559 54.3839ZM34.9559 49.5864H38.237V52.7847H34.9559V49.5864ZM46.4396 46.388H43.1586C42.2524 46.388 41.518 45.6722 41.518 44.7889V41.5906C41.518 40.7073 42.2524 39.9915 43.1586 39.9915H46.4396C47.3458 39.9915 48.0802 40.7073 48.0802 41.5906V44.7889C48.0802 45.6722 47.3458 46.388 46.4396 46.388ZM46.4396 41.5906H43.1585V44.7889H46.4396V41.5906ZM51.3614 46.388H54.6424C55.5486 46.388 56.283 45.6722 56.283 44.7889V41.5906C56.283 40.7073 55.5486 39.9915 54.6424 39.9915H51.3614C50.4552 39.9915 49.7208 40.7073 49.7208 41.5906V44.7889C49.7208 45.6722 50.4552 46.388 51.3614 46.388ZM51.3613 41.5906H54.6424V44.7889H51.3613V41.5906ZM46.4396 54.3839H43.1586C42.2524 54.3839 41.518 53.6681 41.518 52.7847V49.5865C41.518 48.7031 42.2524 47.9873 43.1586 47.9873H46.4396C47.3458 47.9873 48.0802 48.7031 48.0802 49.5865V52.7847C48.0802 53.6681 47.3458 54.3839 46.4396 54.3839ZM46.4396 49.5864H43.1585V52.7847H46.4396V49.5864ZM34.9559 62.3795H38.237C39.1431 62.3795 39.8775 61.6637 39.8775 60.7803V57.5821C39.8775 56.6987 39.1431 55.9829 38.237 55.9829H34.9559C34.0497 55.9829 33.3153 56.6987 33.3153 57.5821V60.7803C33.3153 61.6637 34.0497 62.3795 34.9559 62.3795ZM34.9559 57.582H38.237V60.7803H34.9559V57.582ZM46.4396 62.3795H43.1586C42.2524 62.3795 41.518 61.6637 41.518 60.7803V57.5821C41.518 56.6987 42.2524 55.9829 43.1586 55.9829H46.4396C47.3458 55.9829 48.0802 56.6987 48.0802 57.5821V60.7803C48.0802 61.6637 47.3458 62.3795 46.4396 62.3795ZM46.4396 57.582H43.1585V60.7803H46.4396V57.582ZM45.6194 67.177H43.9789V68.7761H45.6194V67.177Z" fill="#495567"/>
</g>
</svg>
